HIERARCHY
ROOT hip
{
	OFFSET 0.000000 0.000000 0.000000 
	CHANNELS 6 Xposition Yposition Zposition Xrotation Zrotation Yrotation
	JOINT abdomen
	{
		OFFSET 0.000000 3.402643 0.000000 
		CHANNELS 3 Xrotation Zrotation Yrotation
		JOINT chest
		{
			OFFSET 0.000000 8.438565 -0.680529 
			CHANNELS 3 Xrotation Zrotation Yrotation
			JOINT neck
			{
				OFFSET 0.000000 10.207942 -0.272212 
				CHANNELS 3 Xrotation Zrotation Yrotation
				JOINT head
				{
					OFFSET 0.000000 3.130431 0.000000 
					CHANNELS 3 Xrotation Zrotation Yrotation
					End Site
					{
						OFFSET 0.000000 3.130435 0.000000 
					}
				}
			}
			JOINT lCollar
			{
				OFFSET 3.470700 6.669187 -0.816635 
				CHANNELS 3 Yrotation Zrotation Xrotation
				JOINT lShldr
				{
					OFFSET 3.198488 0.000000 0.000000 
					CHANNELS 3 Zrotation Yrotation Xrotation
					JOINT lForeArm
					{
						OFFSET 10.139888 0.000000 0.000000 
						CHANNELS 3 Yrotation Zrotation Xrotation
						JOINT lHand
						{
							OFFSET 8.370511 0.000000 0.000000 
							CHANNELS 3 Zrotation Yrotation Xrotation
							End Site
							{
								OFFSET 4.083176 0.000000 0.000000 
							}
						}
					}
				}
			}
			JOINT rCollar
			{
				OFFSET -3.470700 6.669187 -0.816635 
				CHANNELS 3 Yrotation Zrotation Xrotation
				JOINT rShldr
				{
					OFFSET -3.198488 0.000000 0.000000 
					CHANNELS 3 Zrotation Yrotation Xrotation
					JOINT rForeArm
					{
						OFFSET -10.139888 0.000000 0.000000 
						CHANNELS 3 Yrotation Zrotation Xrotation
						JOINT rHand
						{
							OFFSET -8.370511 0.000000 0.000000 
							CHANNELS 3 Zrotation Yrotation Xrotation
							End Site
							{
								OFFSET -4.083176 0.000000 0.000000 
							}
						}
					}
				}
			}
		}
	}
	JOINT lThigh
	{
		OFFSET 5.308129 -1.633274 1.361059 
		CHANNELS 3 Xrotation Zrotation Yrotation
		JOINT lShin
		{
			OFFSET -2.041588 -20.007561 0.000000 
			CHANNELS 3 Xrotation Zrotation Yrotation
			JOINT lFoot
			{
				OFFSET 0.000000 -19.190928 -1.224953 
				CHANNELS 3 Xrotation Yrotation Zrotation
				End Site
				{
					OFFSET 0.000000 -2.449906 4.627600 
				}
			}
		}
	}
	JOINT rThigh
	{
		OFFSET -5.308129 -1.633274 1.361059 
		CHANNELS 3 Xrotation Zrotation Yrotation
		JOINT rShin
		{
			OFFSET 2.041588 -20.007561 0.000000 
			CHANNELS 3 Xrotation Zrotation Yrotation
			JOINT rFoot
			{
				OFFSET 0.000000 -19.190928 -1.224953 
				CHANNELS 3 Xrotation Yrotation Zrotation
				End Site
				{
					OFFSET 0.000000 -2.449906 4.627600 
				}
			}
		}
	}
}
MOTION
Frames: 18
Frame Time: 0.033333
0.318596 24.303612 0.318596 0.000000 0.000000 0.000000 -0.116619 -0.590633 7.480773 24.564041 11.350323 -7.091298 29.352007 -12.396336 6.359058 10.526902 0.517578 -0.048826 9.663369 -11.605703 9.179831 36.368332 -80.477165 -60.957367 -63.987171 -2.949953 1.648164 35.027863 10.582924 -54.924107 13.644864 -0.719215 9.605350 56.164867 65.450920 -37.780739 63.136406 2.932497 1.666727 77.655266 41.542809 114.223595 15.933430 15.056298 12.359705 107.729141 4.120114 -4.133143 -46.932076 -9.790839 -9.695616 -77.310493 -18.943249 -14.938976 100.383667 -3.739722 4.307071 -21.242453 4.068385 -8.731225 
0.318596 24.673056 0.318596 0.000000 0.000000 0.000000 -0.116619 -0.590633 7.480773 24.564041 11.350323 -7.091298 29.352007 -12.396336 6.359058 10.526902 0.517578 -0.048826 9.663369 -11.605703 9.179831 36.368332 -80.477165 -60.957367 -63.987171 -2.949953 1.648164 35.027863 10.582924 -54.924107 13.644864 -0.719215 9.605350 56.164867 65.450920 -37.780739 63.136406 2.932497 1.666727 77.655266 41.542809 114.223595 14.525977 15.426764 13.175471 110.201401 4.276245 -4.042144 -37.930809 -14.186011 -5.659084 -75.115425 -17.714169 -13.873750 101.194435 -3.788567 4.278082 -24.703165 2.402761 -7.146447 
0.318596 25.042557 0.318596 0.000000 0.000000 0.000000 -0.116619 -0.590633 7.480773 24.564041 11.350323 -7.091298 29.352007 -12.396336 6.359058 10.526902 0.517578 -0.048826 9.663369 -11.605703 9.179831 36.368332 -80.477165 -60.957367 -63.987171 -2.949953 1.648164 35.027863 10.582924 -54.924107 13.644864 -0.719215 9.605350 56.164867 65.450920 -37.780739 63.136406 2.932497 1.666727 77.655266 41.542809 114.223595 13.128028 15.795632 13.981210 112.674309 4.411834 -3.960118 -28.419605 -17.889772 -0.860055 -72.896011 -16.511997 -12.774903 102.015175 -3.847255 4.235971 -28.112288 0.645811 -5.631637 
0.318596 25.635151 0.318596 0.000000 0.000000 0.000000 -0.116619 -0.590633 7.480773 24.564041 11.350323 -7.091298 29.352007 -12.396336 6.359058 10.526902 0.517578 -0.048826 9.663369 -11.605703 9.179831 36.368332 -80.477165 -60.957367 -63.987171 -2.949953 1.648164 35.027863 10.582924 -54.924107 13.644864 -0.719215 9.605350 56.164867 65.450920 -37.780739 63.136406 2.932497 1.666727 77.655266 41.542809 114.223595 7.904842 16.565687 14.703545 116.332314 4.636690 -3.778844 -14.837199 -20.738737 6.210292 -70.480591 -15.445940 -11.637408 103.372116 -3.935063 4.208426 -32.980354 -1.424541 -4.118330 
0.318596 26.227623 0.318596 0.000000 0.000000 0.000000 -0.116619 -0.590633 7.480773 24.564041 11.350323 -7.091298 29.352007 -12.396336 6.359058 10.526902 0.517578 -0.048826 9.663369 -11.605703 9.179831 36.368332 -80.477165 -60.957367 -63.987171 -2.949953 1.648164 35.027863 10.582924 -54.924107 13.644864 -0.719215 9.605350 56.164867 65.450920 -37.780739 63.136406 2.932497 1.666727 77.655266 41.542809 114.223595 2.663473 17.397150 15.335086 119.972038 4.841112 -3.605841 -0.815742 -21.902853 13.893243 -68.052963 -14.432208 -10.457795 104.718674 -4.032550 4.192262 -37.772373 -3.615911 -2.781376 
0.318596 26.381355 0.318596 0.000000 0.000000 0.000000 -0.116619 -0.590633 7.480773 24.564041 11.350323 -7.091298 29.352007 -12.396336 6.359058 10.526902 0.517578 -0.048826 9.663369 -11.605703 9.179831 36.368332 -80.477165 -60.957367 -63.987171 -2.949953 1.648164 35.027863 10.582924 -54.924107 13.644864 -0.719215 9.605350 56.164867 65.450920 -37.780739 63.136406 2.932497 1.666727 77.655266 41.542809 114.223595 -4.092243 18.547176 15.755811 121.918846 4.948857 -3.534223 7.080224 -21.729116 17.148712 -65.360168 -13.603283 -9.343343 106.311348 -4.130304 4.133068 -43.152569 -5.889274 -1.523819 
0.318596 26.535055 0.318596 0.000000 0.000000 0.000000 -0.116619 -0.590633 7.480773 24.564041 11.350323 -7.091298 29.352007 -12.396336 6.359058 10.526902 0.517578 -0.048826 9.663369 -11.605703 9.179831 36.368332 -80.477165 -60.957367 -63.987171 -2.949953 1.648164 35.027863 10.582924 -54.924107 13.644864 -0.719215 9.605350 56.164867 65.450920 -37.780739 63.136406 2.932497 1.666727 77.655266 41.542809 114.223595 -10.877829 19.751625 16.047838 123.856422 5.071984 -3.453876 14.921879 -21.153488 20.283756 -62.643307 -12.811664 -8.198690 107.893806 -4.237796 4.082350 -48.486702 -8.244374 -0.458084 
0.318596 26.582163 0.318596 0.000000 0.000000 0.000000 -0.116619 -0.590633 7.480773 24.564041 11.350323 -7.091298 29.352007 -12.396336 6.359058 10.526902 0.517578 -0.048826 9.663369 -11.605703 9.179831 36.368332 -80.477165 -60.957367 -63.987171 -2.949953 1.648164 35.027863 10.582924 -54.924107 13.644864 -0.719215 9.605350 56.164867 65.450920 -37.780739 63.136406 2.932497 1.666727 77.655266 41.542809 114.223595 -18.875597 21.325308 16.094212 123.396492 5.042679 -3.472228 13.971352 -20.962002 18.079468 -59.636868 -12.285074 -7.198072 109.456627 -4.335431 4.046346 -53.563267 -10.389366 0.504031 
0.318596 26.629261 0.318596 0.000000 0.000000 0.000000 -0.116619 -0.590633 7.480773 24.564041 11.350323 -7.091298 29.352007 -12.396336 6.359058 10.526902 0.517578 -0.048826 9.663369 -11.605703 9.179831 36.368332 -80.477165 -60.957367 -63.987171 -2.949953 1.648164 35.027863 10.582924 -54.924107 13.644864 -0.719215 9.605350 56.164867 65.450920 -37.780739 63.136406 2.932497 1.666727 77.655266 41.542809 114.223595 -26.971294 22.898392 15.905293 122.975792 5.035572 -3.478968 13.002130 -20.767368 15.882737 -56.623058 -11.785012 -6.174850 111.031319 -4.413884 3.972686 -58.645744 -12.577197 1.300607 
0.318596 26.636702 0.318596 0.000000 0.000000 0.000000 -0.116619 -0.590633 7.480773 24.564041 11.350323 -7.091298 29.352007 -12.396336 6.359058 10.526902 0.517578 -0.048826 9.663369 -11.605703 9.179831 36.368332 -80.477165 -60.957367 -63.987171 -2.949953 1.648164 35.027863 10.582924 -54.924107 13.644864 -0.719215 9.605350 56.164867 65.450920 -37.780739 63.136406 2.932497 1.666727 77.655266 41.542809 114.223595 -36.679241 24.745687 15.298681 121.634865 4.966947 -3.537867 8.585648 -19.455692 12.095949 -53.257038 -11.571267 -5.411730 112.292030 -4.491955 3.932472 -62.579838 -14.158708 2.104004 
0.318596 26.644173 0.318596 0.000000 0.000000 0.000000 -0.116619 -0.590633 7.480773 24.564041 11.350323 -7.091298 29.352007 -12.396336 6.359058 10.526902 0.517578 -0.048826 9.663369 -11.605703 9.179831 36.368332 -80.477165 -60.957367 -63.987171 -2.949953 1.648164 35.027863 10.582924 -54.924107 13.644864 -0.719215 9.605350 56.164867 65.450920 -37.780739 63.136406 2.932497 1.666727 77.655266 41.542809 114.223595 -46.569618 26.472137 14.327143 120.303757 4.896963 -3.600462 4.296594 -17.886904 8.441405 -49.889114 -11.405477 -4.643739 113.553749 -4.580066 3.862602 -66.504211 -15.791708 2.801490 
0.318596 26.750788 0.318596 0.000000 0.000000 0.000000 -0.116619 -0.590633 7.480773 24.564041 11.350323 -7.091298 29.352007 -12.396336 6.359058 10.526902 0.517578 -0.048826 9.663369 -11.605703 9.179831 36.368332 -80.477165 -60.957367 -63.987171 -2.949953 1.648164 35.027863 10.582924 -54.924107 13.644864 -0.719215 9.605350 56.164867 65.450920 -37.780739 63.136406 2.932497 1.666727 77.655266 41.542809 114.223595 -56.703197 27.944485 12.961200 118.503250 4.790364 -3.687193 -1.293103 -14.861286 5.631238 -46.141106 -11.513556 -4.232167 114.247993 -4.619153 3.836754 -68.505760 -16.386330 3.640823 
0.318596 26.857544 0.318596 0.000000 0.000000 0.000000 -0.116619 -0.590633 7.480773 24.564041 11.350323 -7.091298 29.352007 -12.396336 6.359058 10.526902 0.517578 -0.048826 9.663369 -11.605703 9.179831 36.368332 -80.477165 -60.957367 -63.987171 -2.949953 1.648164 35.027863 10.582924 -54.924107 13.644864 -0.719215 9.605350 56.164867 65.450920 -37.780739 63.136406 2.932497 1.666727 77.655266 41.542809 114.223595 -67.029335 29.188211 11.297584 116.693848 4.683992 -3.757969 -6.650810 -11.616887 3.180229 -42.355682 -11.638598 -3.826365 114.914520 -4.639127 3.779838 -70.476212 -17.016325 4.483078 
0.318596 27.355921 0.318596 0.000000 0.000000 0.000000 -0.116619 -0.590633 7.480773 24.564041 11.350323 -7.091298 29.352007 -12.396336 6.359058 10.526902 0.517578 -0.048826 9.663369 -11.605703 9.179831 36.368332 -80.477165 -60.957367 -63.987171 -2.949953 1.648164 35.027863 10.582924 -54.924107 13.644864 -0.719215 9.605350 56.164867 65.450920 -37.780739 63.136406 2.932497 1.666727 77.655266 41.542809 114.223595 -76.038033 29.839228 9.672462 114.815613 4.585156 -3.842925 -11.710251 -8.387311 2.617085 -38.075081 -12.070219 -3.929289 114.934395 -4.647981 3.766320 -70.302742 -16.286011 5.266601 
0.318596 27.854286 0.318596 0.000000 0.000000 0.000000 -0.116619 -0.590633 7.480773 24.564041 11.350323 -7.091298 29.352007 -12.396336 6.359058 10.526902 0.517578 -0.048826 9.663369 -11.605703 9.179831 36.368332 -80.477165 -60.957367 -63.987171 -2.949953 1.648164 35.027863 10.582924 -54.924107 13.644864 -0.719215 9.605350 56.164867 65.450920 -37.780739 63.136406 2.932497 1.666727 77.655266 41.542809 114.223595 -85.122803 30.271109 7.929704 112.957298 4.478673 -3.929259 -16.693628 -5.119276 2.357885 -33.773010 -12.477880 -4.039183 114.953613 -4.638101 3.780975 -70.147873 -15.566964 6.050006 
0.318596 28.310513 0.318596 0.000000 0.000000 0.000000 -0.116619 -0.590633 7.480773 24.564041 11.350323 -7.091298 29.352007 -12.396336 6.359058 10.526902 0.517578 -0.048826 9.663369 -11.605703 9.179831 36.368332 -80.477165 -60.957367 -63.987171 -2.949953 1.648164 35.027863 10.582924 -54.924107 13.644864 -0.719215 9.605350 56.164867 65.450920 -37.780739 63.136406 2.932497 1.666727 77.655266 41.542809 114.223595 -91.182762 30.092779 6.822455 111.412376 4.390685 -3.994736 -19.965475 -3.295330 3.132125 -28.915503 -13.115032 -4.697008 114.532700 -4.628247 3.799831 -68.547798 -13.697846 6.526502 
0.318596 28.766596 0.318596 0.000000 0.000000 0.000000 -0.116619 -0.590633 7.480773 24.564041 11.350323 -7.091298 29.352007 -12.396336 6.359058 10.526902 0.517578 -0.048826 9.663369 -11.605703 9.179831 36.368332 -80.477165 -60.957367 -63.987171 -2.949953 1.648164 35.027863 10.582924 -54.924107 13.644864 -0.719215 9.605350 56.164867 65.450920 -37.780739 63.136406 2.932497 1.666727 77.655266 41.542809 114.223595 -97.227951 29.849081 5.727377 109.868019 4.293225 -4.056386 -23.247589 -1.517478 4.010536 -24.027449 -13.687701 -5.391074 114.111816 -4.618400 3.818397 -66.998901 -11.831393 6.949376 
0.318596 28.868259 0.318596 0.000000 0.000000 0.000000 -0.116619 -0.590633 7.480773 24.564041 11.350323 -7.091298 29.352007 -12.396336 6.359058 10.526902 0.517578 -0.048826 9.663369 -11.605703 9.179831 36.368332 -80.477165 -60.957367 -63.987171 -2.949953 1.648164 35.027863 10.582924 -54.924107 13.644864 -0.719215 9.605350 56.164867 65.450920 -37.780739 63.136406 2.932497 1.666727 77.655266 41.542809 114.223595 -98.456070 29.042545 5.764017 108.715034 4.224894 -4.091286 -24.155008 -1.113108 4.544217 -18.775343 -14.332331 -6.474945 113.368729 -4.560551 3.854847 -64.576065 -9.198565 6.678952 
